<svg width="24" height="25" viewBox="0 0 24 25" fill="none" xmlns="http://www.w3.org/2000/svg">
<path d="M11.9372 1.57031C6.16913 1.57031 1.49219 6.27188 1.49219 12.0703C1.49219 17.8687 6.16913 22.5703 11.9372 22.5703C17.7053 22.5703 22.3822 17.8687 22.3822 12.0703C22.3822 6.27188 17.7053 1.57031 11.9372 1.57031ZM16.9569 9.48516C16.9639 9.59531 16.9639 9.71016 16.9639 9.82266C16.9639 13.2633 14.3573 17.2266 9.59408 17.2266C8.12525 17.2266 6.76366 16.7977 5.61657 16.0594C5.82641 16.0828 6.02691 16.0922 6.24141 16.0922C7.45378 16.0922 8.56823 15.6797 9.45652 14.9813C8.31876 14.9578 7.36285 14.2078 7.03644 13.1766C7.43513 13.2352 7.79418 13.2352 8.20452 13.1297C7.61868 13.01 7.09211 12.6902 6.71427 12.2245C6.33644 11.7588 6.13063 11.176 6.13183 10.575V10.5422C6.47456 10.7367 6.8779 10.8562 7.2999 10.8727C6.94515 10.635 6.65422 10.313 6.4529 9.93523C6.25159 9.55746 6.14611 9.13559 6.14582 8.70703C6.14582 8.22187 6.27172 7.77891 6.49787 7.39453C7.14813 8.19923 7.95955 8.85736 8.8794 9.32617C9.79924 9.79497 10.8069 10.064 11.837 10.1156C11.4709 8.34609 12.7859 6.91406 14.3666 6.91406C15.1127 6.91406 15.7842 7.22812 16.2574 7.73438C16.8426 7.62422 17.4022 7.40391 17.9011 7.10859C17.7076 7.71094 17.3019 8.21953 16.7634 8.54062C17.2856 8.48437 17.7892 8.33906 18.2555 8.13516C17.9035 8.65547 17.4628 9.11719 16.9569 9.48516Z" fill="white"/>
</svg>
