<svg width="24" height="25" viewBox="0 0 24 25" fill="none" xmlns="http://www.w3.org/2000/svg">
<path d="M6.62 10.8217C8.06 13.66 10.38 15.9768 13.21 17.431L15.41 15.2246C15.68 14.9538 16.08 14.8635 16.43 14.9839C17.55 15.355 18.76 15.5555 20 15.5555C20.55 15.5555 21 16.0069 21 16.5585V20.0587C21 20.6104 20.55 21.0617 20 21.0617C10.61 21.0617 3 13.4293 3 4.01173C3 3.46011 3.45 3.00879 4 3.00879H7.5C8.05 3.00879 8.5 3.46011 8.5 4.01173C8.5 5.2654 8.7 6.46893 9.07 7.59222C9.18 7.94325 9.1 8.33439 8.82 8.61521L6.62 10.8217Z" fill="black"/>
</svg>
