<svg width="24" height="25" viewBox="0 0 24 25" fill="none" xmlns="http://www.w3.org/2000/svg">
<path d="M12.9598 2.07154C13.6858 2.06874 14.4117 2.07608 15.1374 2.09354L15.3304 2.10054C15.5532 2.10854 15.773 2.11854 16.0386 2.13054C17.0971 2.18054 17.8193 2.34854 18.4529 2.59554C19.1095 2.84954 19.6626 3.19354 20.2157 3.74954C20.7214 4.24915 21.1128 4.85349 21.3626 5.52054C21.6083 6.15754 21.7755 6.88454 21.8252 7.94854C21.8371 8.21454 21.8471 8.43654 21.855 8.66054L21.861 8.85454C21.8787 9.58374 21.8863 10.3131 21.8839 11.0425L21.8849 11.7885V13.0985C21.8873 13.8283 21.8797 14.558 21.862 15.2875L21.856 15.4815C21.8481 15.7055 21.8381 15.9265 21.8262 16.1935C21.7764 17.2575 21.6073 17.9835 21.3626 18.6205C21.1136 19.2883 20.7221 19.8931 20.2157 20.3925C19.7182 20.9009 19.1168 21.2943 18.4529 21.5455C17.8193 21.7925 17.0971 21.9605 16.0386 22.0105C15.773 22.0225 15.5532 22.0325 15.3304 22.0405L15.1374 22.0465C14.4117 22.0643 13.6858 22.072 12.9598 22.0695L12.2178 22.0705H10.9156C10.1897 22.073 9.46378 22.0653 8.73807 22.0475L8.54509 22.0415C8.30894 22.0329 8.07284 22.0229 7.83681 22.0115C6.77838 21.9615 6.05618 21.7915 5.42152 21.5455C4.7577 21.2949 4.15642 20.9014 3.6598 20.3925C3.15351 19.8928 2.76175 19.2881 2.51184 18.6205C2.26613 17.9835 2.09901 17.2575 2.04927 16.1935C2.03819 15.9563 2.02825 15.7189 2.01943 15.4815L2.01446 15.2875C1.99612 14.558 1.98783 13.8283 1.98959 13.0985V11.0425C1.98681 10.3131 1.99411 9.58374 2.01147 8.85454L2.01844 8.66054C2.02639 8.43654 2.03634 8.21454 2.04828 7.94854C2.09802 6.88354 2.26514 6.15854 2.51084 5.52054C2.7609 4.85316 3.15343 4.24899 3.66079 3.75054C4.15707 3.24129 4.75798 2.84712 5.42152 2.59554C6.05618 2.34854 6.77739 2.18054 7.83681 2.13054L8.54509 2.10054L8.73807 2.09554C9.46343 2.07712 10.189 2.06878 10.9146 2.07054L12.9598 2.07154ZM11.9372 7.07154C11.2782 7.06217 10.6239 7.18457 10.0123 7.43161C9.40078 7.67865 8.84416 8.04542 8.37483 8.5106C7.90549 8.97577 7.53281 9.53008 7.27844 10.1413C7.02406 10.7525 6.89307 11.4085 6.89307 12.071C6.89307 12.7336 7.02406 13.3896 7.27844 14.0008C7.53281 14.612 7.90549 15.1663 8.37483 15.6315C8.84416 16.0967 9.40078 16.4634 10.0123 16.7105C10.6239 16.9575 11.2782 17.0799 11.9372 17.0705C13.2564 17.0705 14.5215 16.5438 15.4543 15.6061C16.387 14.6684 16.9111 13.3966 16.9111 12.0705C16.9111 10.7445 16.387 9.47269 15.4543 8.53501C14.5215 7.59733 13.2564 7.07154 11.9372 7.07154ZM11.9372 9.07154C12.3337 9.0642 12.7276 9.13634 13.0959 9.28375C13.4643 9.43116 13.7998 9.65088 14.0827 9.93009C14.3657 10.2093 14.5904 10.5424 14.7439 10.9099C14.8974 11.2774 14.9764 11.672 14.9765 12.0705C14.9766 12.4691 14.8976 12.8637 14.7443 13.2313C14.5909 13.5988 14.3663 13.932 14.0834 14.2113C13.8006 14.4906 13.4652 14.7104 13.0969 14.8579C12.7285 15.0055 12.3346 15.0778 11.9382 15.0705C11.1467 15.0705 10.3877 14.7545 9.82801 14.1919C9.26835 13.6293 8.95393 12.8662 8.95393 12.0705C8.95393 11.2749 9.26835 10.5118 9.82801 9.94922C10.3877 9.38661 11.1467 9.07054 11.9382 9.07054L11.9372 9.07154ZM17.1597 5.57154C16.8388 5.58446 16.5353 5.72169 16.3128 5.95451C16.0903 6.18734 15.966 6.49768 15.966 6.82054C15.966 7.14341 16.0903 7.45375 16.3128 7.68657C16.5353 7.91939 16.8388 8.05663 17.1597 8.06954C17.4895 8.06954 17.8058 7.93785 18.039 7.70343C18.2722 7.46901 18.4032 7.15106 18.4032 6.81954C18.4032 6.48802 18.2722 6.17008 18.039 5.93566C17.8058 5.70124 17.4895 5.56954 17.1597 5.56954V5.57154Z" fill="white"/>
</svg>
